<?xml version="1.0" standalone="no"?>
<!DOCTYPE svg PUBLIC "-//W3C//DTD SVG 20010904//EN"
 "http://www.w3.org/TR/2001/REC-SVG-20010904/DTD/svg10.dtd">
<svg version="1.0" xmlns="http://www.w3.org/2000/svg"
 width="191.000000pt" height="133.000000pt" viewBox="0 0 191.000000 133.000000"
 preserveAspectRatio="xMidYMid meet">
<metadata>
Created by potrace 1.16, written by Peter Selinger 2001-2019
</metadata>
<g transform="translate(0.000000,133.000000) scale(0.100000,-0.100000)"
fill="#000000" stroke="none">
<path d="M1808 1248 c-75 -113 -116 -146 -232 -193 -44 -17 -146 -98 -219
-173 l-49 -49 31 -11 c35 -12 51 -44 51 -98 0 -49 -37 -84 -89 -84 -22 0 -41
-5 -43 -11 -2 -6 -2 25 0 68 l3 78 -28 -35 c-15 -19 -49 -58 -76 -87 -39 -42
-48 -57 -44 -80 l4 -28 14 32 c7 18 19 33 25 33 7 0 15 7 18 16 5 13 9 14 21
4 8 -7 12 -16 9 -21 -3 -5 0 -8 8 -7 7 2 12 -5 12 -14 -1 -10 2 -18 7 -18 5 0
9 10 9 23 0 18 2 19 10 7 9 -13 11 -13 20 0 5 8 11 20 14 25 2 6 9 5 17 -2 11
-11 7 -21 -19 -58 -35 -49 -46 -90 -16 -61 8 9 19 16 22 16 4 0 12 10 17 22 6
13 22 29 38 36 24 12 33 33 28 65 -1 5 3 6 8 3 5 -3 14 7 19 23 8 22 16 29 36
29 15 0 29 -4 32 -9 6 -10 54 -12 54 -2 0 4 -16 21 -35 39 -19 17 -35 41 -35
53 0 29 42 54 79 46 38 -8 31 -35 -10 -35 -36 0 -37 -12 -1 -40 15 -12 32 -33
38 -47 l11 -25 20 43 c39 84 51 115 83 214 36 113 55 152 114 245 39 62 69
120 62 120 -2 0 -19 -24 -38 -52z"/>
<path d="M40 745 l0 -95 43 0 c24 0 48 5 55 12 15 15 16 74 1 83 -6 4 -7 19
-4 36 9 40 -9 59 -56 59 l-39 0 0 -95z"/>
<path d="M310 800 c-27 -27 -35 -65 -20 -101 15 -35 41 -51 85 -51 44 0 70 16
85 51 15 36 7 74 -20 101 -27 27 -103 27 -130 0z"/>
<path d="M782 797 c-31 -33 -30 -96 1 -125 35 -33 109 -31 136 4 12 15 21 41
21 59 0 18 -9 44 -21 59 -28 36 -105 38 -137 3z"/>
<path d="M1038 810 c-9 -6 -22 -25 -28 -44 -24 -75 37 -136 115 -114 45 12 60
33 60 84 0 36 -5 50 -24 65 -25 21 -94 25 -123 9z"/>
<path d="M210 709 c0 -89 5 -122 33 -219 39 -135 91 -223 195 -329 116 -117
187 -128 307 -46 53 37 64 41 68 27 3 -11 5 -8 6 8 1 14 10 40 22 59 23 38 20
48 -9 32 -57 -31 -218 -21 -307 19 -22 9 -55 23 -73 30 -18 7 -57 37 -87 67
-71 71 -107 163 -130 329 -9 65 -19 121 -21 123 -2 2 -4 -43 -4 -100z"/>
</g>
</svg>
